<?xml version="1.0" encoding="utf-8"?>
<!-- Generator: Adobe Illustrator 16.0.0, SVG Export Plug-In . SVG Version: 6.00 Build 0)  -->
<!DOCTYPE svg PUBLIC "-//W3C//DTD SVG 1.1//EN" "http://www.w3.org/Graphics/SVG/1.1/DTD/svg11.dtd">
<svg version="1.1" id="Layer_1" xmlns="http://www.w3.org/2000/svg" xmlns:xlink="http://www.w3.org/1999/xlink" x="0px" y="0px"
	 width="64px" height="64px" viewBox="0 0 64 64" enable-background="new 0 0 64 64" xml:space="preserve">
<g>
	<rect x="16" y="16" fill="#333333" width="4" height="4"/>
	<rect x="16" y="23" fill="#333333" width="4" height="4"/>
	<rect x="24" y="34" fill="#333333" width="16" height="14"/>
	<rect x="24" y="16" fill="#333333" width="16" height="14"/>
	<rect x="16" y="44" fill="#333333" width="4" height="4"/>
	<rect x="16" y="37" fill="#333333" width="4" height="4"/>
	<rect x="16" y="30" fill="#333333" width="4" height="4"/>
	<rect x="44" y="23" fill="#333333" width="4" height="4"/>
	<rect x="44" y="16" fill="#333333" width="4" height="4"/>
	<path fill="#333333" d="M55,0H9C2.373,0,0,2.373,0,9l0,46c0,6.627,2.373,9,9,9h46c6.627,0,9-2.373,9-9V9C64,2.373,61.627,0,55,0z
		 M52,48c0,2.209-1.791,4-4,4H16c-2.209,0-4-1.791-4-4V16c0-2.209,1.791-4,4-4h32c2.209,0,4,1.791,4,4V48z"/>
	<rect x="44" y="44" fill="#333333" width="4" height="4"/>
	<rect x="44" y="30" fill="#333333" width="4" height="4"/>
	<rect x="44" y="37" fill="#333333" width="4" height="4"/>
</g>
<g id="Layer_2" display="none">
</g>
</svg>
